<svg width="228" height="137" viewBox="0 0 228 137" fill="none" xmlns="http://www.w3.org/2000/svg">
<path fill-rule="evenodd" clip-rule="evenodd" d="M143.887 57.7679C144.815 57.7679 145.28 58.8901 144.624 59.5464L122.048 82.1208C121.391 82.7771 120.269 82.3123 120.269 81.3841L120.269 58.8097C120.269 58.2343 120.736 57.7679 121.311 57.7679L143.887 57.7679ZM74.271 36.4961C73.3427 36.4961 72.8779 35.3739 73.5342 34.7176L96.1103 12.1432C96.7667 11.4869 97.8889 11.9517 97.8889 12.8799L97.8889 35.4543C97.8889 36.0297 97.4225 36.4961 96.847 36.4961L74.271 36.4961Z" fill="url(#paint0_linear_21_35)"/>
<path d="M123.416 32.7911L153.658 32.7911C154.233 32.7911 154.7 32.3246 154.7 31.7493L154.7 1.50912C154.7 0.933737 154.233 0.467297 153.658 0.467297L123.416 0.467294C122.84 0.467294 122.374 0.933734 122.374 1.50912L122.374 31.7493C122.374 32.3246 122.84 32.7911 123.416 32.7911Z" fill="url(#paint1_linear_21_35)"/>
<path d="M145.817 52.5587L104.14 52.5587C103.565 52.5587 103.098 52.0922 103.098 51.5168L103.098 9.84371C103.098 9.26832 103.565 8.80189 104.14 8.80189L116.122 8.80189C116.698 8.80189 117.164 9.26832 117.164 9.84371L117.164 36.9313C117.164 37.5066 117.631 37.9731 118.206 37.9731L145.817 37.9731C146.392 37.9731 146.858 38.4395 146.858 39.0149L146.858 51.5169C146.858 52.0922 146.392 52.5587 145.817 52.5587Z" fill="url(#paint2_linear_21_35)"/>
<path d="M5.84697 131.022H15.4527V135.658H0V106.506H5.84697V131.022Z" fill="#39227A"/>
<path d="M29.443 136.033C27.2156 136.033 25.2109 135.546 23.429 134.572C21.6471 133.569 20.241 132.163 19.2108 130.353C18.2085 128.544 17.7073 126.455 17.7073 124.089C17.7073 121.722 18.2224 119.634 19.2526 117.824C20.3106 116.014 21.7445 114.622 23.5543 113.648C25.3641 112.645 27.3827 112.144 29.6101 112.144C31.8375 112.144 33.8561 112.645 35.6659 113.648C37.4757 114.622 38.8957 116.014 39.9258 117.824C40.9839 119.634 41.5129 121.722 41.5129 124.089C41.5129 126.455 40.9699 128.544 39.8841 130.353C38.826 132.163 37.3782 133.569 35.5406 134.572C33.7308 135.546 31.6983 136.033 29.443 136.033ZM29.443 130.938C30.5011 130.938 31.4895 130.688 32.4083 130.186C33.3549 129.657 34.1067 128.878 34.6636 127.848C35.2204 126.817 35.4988 125.565 35.4988 124.089C35.4988 121.889 34.9141 120.205 33.7447 119.035C32.6032 117.838 31.1971 117.24 29.5266 117.24C27.856 117.24 26.4499 117.838 25.3084 119.035C24.1947 120.205 23.6378 121.889 23.6378 124.089C23.6378 126.288 24.1808 127.987 25.2666 129.184C26.3803 130.353 27.7725 130.938 29.443 130.938Z" fill="#39227A"/>
<path d="M44.2983 124.089C44.2983 121.694 44.7856 119.606 45.7601 117.824C46.7346 116.014 48.085 114.622 49.8112 113.648C51.5375 112.645 53.5143 112.144 55.7417 112.144C58.6095 112.144 60.9761 112.868 62.8416 114.316C64.7349 115.736 66.0018 117.741 66.6421 120.33H60.3358C60.0017 119.328 59.4309 118.548 58.6234 117.991C57.8438 117.407 56.8693 117.114 55.6999 117.114C54.0294 117.114 52.7069 117.727 51.7324 118.952C50.7579 120.149 50.2706 121.861 50.2706 124.089C50.2706 126.288 50.7579 128.001 51.7324 129.226C52.7069 130.423 54.0294 131.022 55.6999 131.022C58.0666 131.022 59.6119 129.964 60.3358 127.848H66.6421C66.0018 130.353 64.7349 132.344 62.8416 133.82C60.9483 135.296 58.5817 136.033 55.7417 136.033C53.5143 136.033 51.5375 135.546 49.8112 134.572C48.085 133.569 46.7346 132.177 45.7601 130.395C44.7856 128.585 44.2983 126.483 44.2983 124.089Z" fill="#39227A"/>
<path d="M69.4221 124.005C69.4221 121.667 69.8815 119.592 70.8003 117.782C71.7469 115.973 73.0138 114.581 74.6008 113.606C76.2157 112.632 78.0116 112.144 79.9884 112.144C81.7146 112.144 83.2181 112.492 84.4989 113.188C85.8075 113.884 86.8516 114.762 87.6312 115.82V112.52H93.52V135.658H87.6312V132.275C86.8795 133.36 85.8354 134.265 84.4989 134.989C83.1903 135.685 81.6729 136.033 79.9466 136.033C77.9976 136.033 76.2157 135.532 74.6008 134.53C73.0138 133.528 71.7469 132.121 70.8003 130.312C69.8815 128.474 69.4221 126.372 69.4221 124.005ZM87.6312 124.089C87.6312 122.669 87.3528 121.458 86.7959 120.455C86.2391 119.425 85.4873 118.646 84.5407 118.117C83.594 117.56 82.5778 117.281 81.4919 117.281C80.406 117.281 79.4037 117.546 78.4849 118.075C77.5661 118.604 76.8143 119.383 76.2296 120.414C75.6728 121.416 75.3943 122.613 75.3943 124.005C75.3943 125.397 75.6728 126.623 76.2296 127.681C76.8143 128.711 77.5661 129.504 78.4849 130.061C79.4315 130.618 80.4339 130.896 81.4919 130.896C82.5778 130.896 83.594 130.632 84.5407 130.103C85.4873 129.546 86.2391 128.766 86.7959 127.764C87.3528 126.734 87.6312 125.509 87.6312 124.089Z" fill="#39227A"/>
<path d="M105.078 104.752V135.658H99.2305V104.752H105.078Z" fill="#39227A"/>
<path d="M120.919 135.95C118.887 135.95 117.049 135.602 115.407 134.906C113.792 134.21 112.511 133.207 111.564 131.899C110.618 130.59 110.13 129.045 110.103 127.263H116.367C116.451 128.46 116.868 129.407 117.62 130.103C118.4 130.799 119.458 131.147 120.794 131.147C122.159 131.147 123.23 130.827 124.01 130.186C124.79 129.518 125.179 128.655 125.179 127.597C125.179 126.734 124.915 126.024 124.386 125.467C123.857 124.91 123.189 124.479 122.381 124.172C121.602 123.838 120.516 123.476 119.124 123.087C117.23 122.53 115.685 121.987 114.488 121.458C113.318 120.901 112.302 120.08 111.439 118.994C110.604 117.88 110.186 116.404 110.186 114.567C110.186 112.84 110.618 111.337 111.481 110.056C112.344 108.775 113.555 107.801 115.114 107.133C116.673 106.437 118.455 106.089 120.46 106.089C123.467 106.089 125.903 106.826 127.769 108.302C129.662 109.75 130.706 111.782 130.901 114.4H124.469C124.414 113.397 123.982 112.576 123.175 111.936C122.395 111.267 121.351 110.933 120.042 110.933C118.901 110.933 117.982 111.226 117.286 111.81C116.618 112.395 116.284 113.244 116.284 114.358C116.284 115.137 116.534 115.792 117.035 116.321C117.564 116.822 118.205 117.24 118.957 117.574C119.736 117.88 120.822 118.242 122.214 118.66C124.107 119.216 125.653 119.773 126.85 120.33C128.047 120.887 129.077 121.722 129.941 122.836C130.804 123.95 131.235 125.411 131.235 127.221C131.235 128.78 130.832 130.228 130.024 131.565C129.217 132.901 128.033 133.973 126.474 134.78C124.915 135.56 123.063 135.95 120.919 135.95Z" fill="#39227A"/>
<path d="M143.112 117.323V128.516C143.112 129.295 143.293 129.866 143.655 130.228C144.045 130.562 144.685 130.729 145.576 130.729H148.291V135.658H144.615C139.687 135.658 137.223 133.263 137.223 128.474V117.323H134.467V112.52H137.223V106.799H143.112V112.52H148.291V117.323H143.112Z" fill="#39227A"/>
<path d="M150.993 124.005C150.993 121.667 151.452 119.592 152.371 117.782C153.317 115.973 154.584 114.581 156.171 113.606C157.786 112.632 159.582 112.144 161.559 112.144C163.285 112.144 164.789 112.492 166.069 113.188C167.378 113.884 168.422 114.762 169.202 115.82V112.52H175.09V135.658H169.202V132.275C168.45 133.36 167.406 134.265 166.069 134.989C164.761 135.685 163.243 136.033 161.517 136.033C159.568 136.033 157.786 135.532 156.171 134.53C154.584 133.528 153.317 132.121 152.371 130.312C151.452 128.474 150.993 126.372 150.993 124.005ZM169.202 124.089C169.202 122.669 168.923 121.458 168.366 120.455C167.81 119.425 167.058 118.646 166.111 118.117C165.165 117.56 164.148 117.281 163.062 117.281C161.977 117.281 160.974 117.546 160.055 118.075C159.137 118.604 158.385 119.383 157.8 120.414C157.243 121.416 156.965 122.613 156.965 124.005C156.965 125.397 157.243 126.623 157.8 127.681C158.385 128.711 159.137 129.504 160.055 130.061C161.002 130.618 162.004 130.896 163.062 130.896C164.148 130.896 165.165 130.632 166.111 130.103C167.058 129.546 167.81 128.766 168.366 127.764C168.923 126.734 169.202 125.509 169.202 124.089Z" fill="#39227A"/>
<path d="M179.298 124.089C179.298 121.694 179.785 119.606 180.759 117.824C181.734 116.014 183.084 114.622 184.81 113.648C186.537 112.645 188.514 112.144 190.741 112.144C193.609 112.144 195.975 112.868 197.841 114.316C199.734 115.736 201.001 117.741 201.641 120.33H195.335C195.001 119.328 194.43 118.548 193.623 117.991C192.843 117.407 191.869 117.114 190.699 117.114C189.029 117.114 187.706 117.727 186.732 118.952C185.757 120.149 185.27 121.861 185.27 124.089C185.27 126.288 185.757 128.001 186.732 129.226C187.706 130.423 189.029 131.022 190.699 131.022C193.066 131.022 194.611 129.964 195.335 127.848H201.641C201.001 130.353 199.734 132.344 197.841 133.82C195.948 135.296 193.581 136.033 190.741 136.033C188.514 136.033 186.537 135.546 184.81 134.572C183.084 133.569 181.734 132.177 180.759 130.395C179.785 128.585 179.298 126.483 179.298 124.089Z" fill="#39227A"/>
<path d="M219.623 135.658L211.772 125.801V135.658H205.925V104.752H211.772V122.335L219.54 112.52H227.141L216.951 124.131L227.224 135.658H219.623Z" fill="#39227A"/>
<defs>
<linearGradient id="paint0_linear_21_35" x1="145.003" y1="11.6217" x2="86.1476" y2="69.8955" gradientUnits="userSpaceOnUse">
<stop stop-color="#4D29B4"/>
<stop offset="1" stop-color="#836FFF"/>
</linearGradient>
<linearGradient id="paint1_linear_21_35" x1="119.542" y1="34.4155" x2="160.277" y2="-5.59755" gradientUnits="userSpaceOnUse">
<stop stop-color="#70FFE5"/>
<stop offset="1" stop-color="#6295E1"/>
</linearGradient>
<linearGradient id="paint2_linear_21_35" x1="141.608" y1="18.4114" x2="103.298" y2="54.7873" gradientUnits="userSpaceOnUse">
<stop offset="0.00747511" stop-color="#654FEC"/>
<stop offset="1" stop-color="#71B2FF"/>
</linearGradient>
</defs>
</svg>
