<svg width="83" height="83" viewBox="0 0 83 83" fill="none" xmlns="http://www.w3.org/2000/svg">
<path fill-rule="evenodd" clip-rule="evenodd" d="M50.9884 32.6168L81.2307 32.6168C81.8062 32.6168 82.2726 32.1504 82.2726 31.575V1.33484C82.2726 0.759459 81.8062 0.293018 81.2307 0.293018L50.9884 0.293015C50.413 0.293015 49.9465 0.759456 49.9465 1.33484L49.9465 31.575C49.9465 32.1504 50.413 32.6168 50.9884 32.6168ZM71.4598 57.5936C72.388 57.5936 72.8529 58.7158 72.1965 59.3721L49.6205 81.9465C48.9641 82.6028 47.8418 82.138 47.8418 81.2098V58.6354C47.8418 58.06 48.3083 57.5936 48.8837 57.5936H71.4598ZM1.8438 36.3218C0.915558 36.3218 0.450698 35.1996 1.10706 34.5433L23.6831 11.9689C24.3395 11.3126 25.4617 11.7774 25.4617 12.7056L25.4617 35.28C25.4617 35.8554 24.9953 36.3218 24.4198 36.3218L1.8438 36.3218ZM31.7132 52.3844L73.3894 52.3844C73.9648 52.3844 74.4313 51.918 74.4313 51.3426V38.8406C74.4313 38.2653 73.9648 37.7988 73.3894 37.7988H45.7789C45.2035 37.7988 44.737 37.3324 44.737 36.757L44.737 9.66945C44.737 9.09406 44.2705 8.62763 43.6951 8.62763L31.7132 8.62762C31.1377 8.62762 30.6713 9.09406 30.6713 9.66945L30.6713 51.3426C30.6713 51.918 31.1377 52.3844 31.7132 52.3844Z" fill="#39227A"/>
</svg>
