<svg width="380" height="89" viewBox="0 0 380 89" fill="none" xmlns="http://www.w3.org/2000/svg">
<path d="M115.18 46.5461H126.67V52.0917H108.185V17.2197H115.18V46.5461Z" fill="#E5E5E5"/>
<path d="M143.406 52.5413C140.742 52.5413 138.343 51.9585 136.212 50.7927C134.08 49.5937 132.398 47.9117 131.166 45.7468C129.967 43.5819 129.367 41.0839 129.367 38.2528C129.367 35.4218 129.984 32.9238 131.216 30.7588C132.482 28.5939 134.197 26.9286 136.362 25.7628C138.527 24.5638 140.941 23.9643 143.606 23.9643C146.27 23.9643 148.685 24.5638 150.85 25.7628C153.015 26.9286 154.714 28.5939 155.946 30.7588C157.212 32.9238 157.844 35.4218 157.844 38.2528C157.844 41.0839 157.195 43.5819 155.896 45.7468C154.63 47.9117 152.898 49.5937 150.7 50.7927C148.535 51.9585 146.104 52.5413 143.406 52.5413ZM143.406 46.4462C144.672 46.4462 145.854 46.1465 146.953 45.547C148.086 44.9141 148.985 43.9815 149.651 42.7492C150.317 41.5169 150.65 40.0181 150.65 38.2528C150.65 35.6216 149.951 33.6065 148.552 32.2077C147.186 30.7755 145.504 30.0594 143.506 30.0594C141.508 30.0594 139.826 30.7755 138.46 32.2077C137.128 33.6065 136.462 35.6216 136.462 38.2528C136.462 40.884 137.111 42.9157 138.41 44.3479C139.742 45.7468 141.408 46.4462 143.406 46.4462Z" fill="#E5E5E5"/>
<path d="M161.177 38.2528C161.177 35.3885 161.759 32.8905 162.925 30.7588C164.091 28.5939 165.706 26.9286 167.771 25.7628C169.836 24.5638 172.201 23.9643 174.866 23.9643C178.296 23.9643 181.127 24.8303 183.359 26.5622C185.624 28.2608 187.139 30.6589 187.905 33.7564H180.361C179.961 32.5574 179.279 31.6248 178.313 30.9587C177.38 30.2592 176.214 29.9095 174.816 29.9095C172.817 29.9095 171.235 30.6423 170.069 32.1077C168.904 33.5399 168.321 35.5883 168.321 38.2528C168.321 40.884 168.904 42.9324 170.069 44.3979C171.235 45.8301 172.817 46.5461 174.816 46.5461C177.647 46.5461 179.495 45.2805 180.361 42.7492H187.905C187.139 45.7468 185.624 48.1282 183.359 49.8935C181.094 51.6587 178.263 52.5413 174.866 52.5413C172.201 52.5413 169.836 51.9585 167.771 50.7927C165.706 49.5937 164.091 47.9284 162.925 45.7968C161.759 43.6318 161.177 41.1172 161.177 38.2528Z" fill="#E5E5E5"/>
<path d="M191.231 38.1529C191.231 35.3551 191.78 32.8738 192.879 30.7089C194.012 28.5439 195.527 26.8786 197.426 25.7129C199.357 24.5472 201.506 23.9643 203.87 23.9643C205.935 23.9643 207.734 24.3806 209.266 25.2133C210.831 26.046 212.08 27.0951 213.013 28.3608V24.4139H220.057V52.0917H213.013V48.0449C212.114 49.3439 210.865 50.4264 209.266 51.2923C207.701 52.125 205.885 52.5413 203.82 52.5413C201.489 52.5413 199.357 51.9418 197.426 50.7428C195.527 49.5437 194.012 47.8618 192.879 45.6968C191.78 43.4986 191.231 40.9839 191.231 38.1529ZM213.013 38.2528C213.013 36.5542 212.68 35.1053 212.014 33.9063C211.348 32.674 210.448 31.7414 209.316 31.1086C208.184 30.4424 206.968 30.1094 205.669 30.1094C204.37 30.1094 203.171 30.4258 202.072 31.0586C200.973 31.6914 200.073 32.624 199.374 33.8563C198.708 35.0554 198.375 36.4876 198.375 38.1529C198.375 39.8182 198.708 41.2837 199.374 42.5494C200.073 43.7817 200.973 44.7309 202.072 45.3971C203.204 46.0632 204.403 46.3963 205.669 46.3963C206.968 46.3963 208.184 46.0799 209.316 45.447C210.448 44.7809 211.348 43.8483 212.014 42.6493C212.68 41.4169 213.013 39.9515 213.013 38.2528Z" fill="#E5E5E5"/>
<path d="M233.883 15.1214V52.0917H226.889V15.1214H233.883Z" fill="#E5E5E5"/>
<path d="M252.834 52.4414C250.402 52.4414 248.204 52.0251 246.239 51.1924C244.307 50.3598 242.775 49.1607 241.643 47.5953C240.51 46.0299 239.928 44.1814 239.894 42.0498H247.388C247.488 43.4819 247.988 44.6144 248.887 45.447C249.82 46.2797 251.085 46.696 252.684 46.696C254.316 46.696 255.598 46.313 256.531 45.547C257.463 44.7476 257.93 43.7151 257.93 42.4494C257.93 41.4169 257.613 40.5676 256.98 39.9015C256.348 39.2354 255.548 38.7191 254.582 38.3527C253.65 37.9531 252.351 37.5201 250.686 37.0538C248.421 36.3876 246.572 35.7382 245.14 35.1053C243.741 34.4392 242.525 33.4567 241.493 32.1577C240.494 30.8254 239.994 29.0602 239.994 26.862C239.994 24.797 240.51 22.9984 241.543 21.4663C242.575 19.9342 244.024 18.7685 245.889 17.9691C247.755 17.1364 249.886 16.7201 252.284 16.7201C255.881 16.7201 258.796 17.6027 261.027 19.368C263.292 21.0999 264.541 23.5313 264.774 26.6621H257.08C257.014 25.4631 256.498 24.4805 255.532 23.7145C254.599 22.9151 253.35 22.5155 251.785 22.5155C250.419 22.5155 249.32 22.8652 248.487 23.5646C247.688 24.2641 247.288 25.2799 247.288 26.6122C247.288 27.5448 247.588 28.3275 248.188 28.9603C248.82 29.5598 249.586 30.0594 250.486 30.4591C251.418 30.8254 252.717 31.2584 254.383 31.758C256.647 32.4242 258.496 33.0903 259.928 33.7564C261.36 34.4226 262.593 35.4218 263.625 36.754C264.658 38.0863 265.174 39.8349 265.174 41.9998C265.174 43.865 264.691 45.5969 263.725 47.1956C262.759 48.7943 261.344 50.0766 259.478 51.0425C257.613 51.9751 255.398 52.4414 252.834 52.4414Z" fill="#E5E5E5"/>
<path d="M279.381 30.1593V43.5486C279.381 44.4811 279.598 45.1639 280.031 45.5969C280.497 45.9966 281.263 46.1964 282.329 46.1964H285.576V52.0917H281.18C275.285 52.0917 272.337 49.2273 272.337 43.4986V30.1593H269.04V24.4139H272.337V17.5694H279.381V24.4139H285.576V30.1593H279.381Z" fill="#E5E5E5"/>
<path d="M288.808 38.1529C288.808 35.3551 289.358 32.8738 290.457 30.7089C291.59 28.5439 293.105 26.8786 295.003 25.7129C296.935 24.5472 299.083 23.9643 301.448 23.9643C303.513 23.9643 305.312 24.3806 306.844 25.2133C308.409 26.046 309.658 27.0951 310.591 28.3608V24.4139H317.635V52.0917H310.591V48.0449C309.692 49.3439 308.443 50.4264 306.844 51.2923C305.279 52.125 303.463 52.5413 301.398 52.5413C299.067 52.5413 296.935 51.9418 295.003 50.7428C293.105 49.5437 291.59 47.8618 290.457 45.6968C289.358 43.4986 288.808 40.9839 288.808 38.1529ZM310.591 38.2528C310.591 36.5542 310.258 35.1053 309.592 33.9063C308.926 32.674 308.026 31.7414 306.894 31.1086C305.761 30.4424 304.546 30.1094 303.247 30.1094C301.948 30.1094 300.749 30.4258 299.65 31.0586C298.551 31.6914 297.651 32.624 296.952 33.8563C296.286 35.0554 295.953 36.4876 295.953 38.1529C295.953 39.8182 296.286 41.2837 296.952 42.5494C297.651 43.7817 298.551 44.7309 299.65 45.3971C300.782 46.0632 301.981 46.3963 303.247 46.3963C304.546 46.3963 305.761 46.0799 306.894 45.447C308.026 44.7809 308.926 43.8483 309.592 42.6493C310.258 41.4169 310.591 39.9515 310.591 38.2528Z" fill="#E5E5E5"/>
<path d="M322.668 38.2528C322.668 35.3885 323.251 32.8905 324.417 30.7588C325.582 28.5939 327.198 26.9286 329.263 25.7628C331.328 24.5638 333.692 23.9643 336.357 23.9643C339.788 23.9643 342.619 24.8303 344.85 26.5622C347.115 28.2608 348.63 30.6589 349.396 33.7564H341.853C341.453 32.5574 340.77 31.6248 339.804 30.9587C338.872 30.2592 337.706 29.9095 336.307 29.9095C334.309 29.9095 332.727 30.6423 331.561 32.1077C330.395 33.5399 329.812 35.5883 329.812 38.2528C329.812 40.884 330.395 42.9324 331.561 44.3979C332.727 45.8301 334.309 46.5461 336.307 46.5461C339.138 46.5461 340.987 45.2805 341.853 42.7492H349.396C348.63 45.7468 347.115 48.1282 344.85 49.8935C342.585 51.6587 339.754 52.5413 336.357 52.5413C333.692 52.5413 331.328 51.9585 329.263 50.7927C327.198 49.5937 325.582 47.9284 324.417 45.7968C323.251 43.6318 322.668 41.1172 322.668 38.2528Z" fill="#E5E5E5"/>
<path d="M370.907 52.0917L361.515 40.3012V52.0917H354.52V15.1214H361.515V36.1545L370.807 24.4139H379.9L367.71 38.3028L380 52.0917H370.907Z" fill="#E5E5E5"/>
<path fill-rule="evenodd" clip-rule="evenodd" d="M54.1933 34.9027L86.8488 34.9027C87.4702 34.9027 87.9739 34.399 87.9739 33.7777V1.12463C87.9739 0.503329 87.4702 -0.000332784 86.8488 -0.000332839L54.1933 -0.000335693C53.572 -0.000335748 53.0683 0.503326 53.0683 1.12462L53.0683 33.7777C53.0683 34.399 53.572 34.9027 54.1933 34.9027ZM76.2982 61.8725C77.3005 61.8725 77.8025 63.0842 77.0938 63.7929L52.7163 88.1686C52.0075 88.8773 50.7957 88.3754 50.7957 87.3731V62.9974C50.7957 62.3761 51.2994 61.8725 51.9208 61.8725L76.2982 61.8725ZM1.12729 38.9033C0.124989 38.9033 -0.376963 37.6916 0.331774 36.9829L24.7093 12.6072C25.418 11.8985 26.6298 12.4005 26.6298 13.4027L26.6298 37.7784C26.6298 38.3997 26.1261 38.9033 25.5048 38.9033L1.12729 38.9033ZM33.3801 56.2477L78.3818 56.2477C79.0031 56.2477 79.5068 55.7441 79.5068 55.1228V41.6232C79.5068 41.0019 79.0031 40.4983 78.3818 40.4983L48.5681 40.4983C47.9468 40.4983 47.4431 39.9946 47.4431 39.3733L47.4431 10.1243C47.4431 9.50304 46.9394 8.99939 46.3181 8.99939L33.3801 8.99939C32.7587 8.99939 32.255 9.50304 32.255 10.1243L32.255 55.1227C32.255 55.744 32.7587 56.2477 33.3801 56.2477Z" fill="#E5E5E5"/>
</svg>
