<svg width="228" height="136" viewBox="0 0 228 136" fill="none" xmlns="http://www.w3.org/2000/svg">
<path fill-rule="evenodd" clip-rule="evenodd" d="M123.416 32.5741L153.658 32.5741C154.233 32.5741 154.7 32.1077 154.7 31.5323V1.29216C154.7 0.716776 154.233 0.250336 153.658 0.250336L123.416 0.250332C122.84 0.250332 122.374 0.716773 122.374 1.29216L122.374 31.5323C122.374 32.1077 122.84 32.5741 123.416 32.5741ZM143.887 57.5509C144.815 57.5509 145.28 58.6731 144.624 59.3294L122.048 81.9038C121.391 82.5601 120.269 82.0953 120.269 81.1671V58.5927C120.269 58.0173 120.736 57.5509 121.311 57.5509H143.887ZM74.271 36.2791C73.3427 36.2791 72.8779 35.1569 73.5342 34.5006L96.1103 11.9262C96.7667 11.2699 97.8889 11.7347 97.8889 12.6629L97.8889 35.2373C97.8889 35.8127 97.4225 36.2791 96.847 36.2791L74.271 36.2791ZM104.14 52.3417L145.817 52.3417C146.392 52.3417 146.858 51.8753 146.858 51.2999V38.798C146.858 38.2226 146.392 37.7561 145.817 37.7561H118.206C117.631 37.7561 117.164 37.2897 117.164 36.7143L117.164 9.62676C117.164 9.05138 116.698 8.58494 116.122 8.58494L104.14 8.58494C103.565 8.58494 103.098 9.05138 103.098 9.62676L103.098 51.2999C103.098 51.8753 103.565 52.3417 104.14 52.3417Z" fill="#39227A"/>
<path d="M5.84697 130.805H15.4527V135.441H0V106.289H5.84697V130.805Z" fill="#39227A"/>
<path d="M29.443 135.816C27.2156 135.816 25.2109 135.329 23.429 134.355C21.6471 133.352 20.241 131.946 19.2108 130.137C18.2085 128.327 17.7073 126.239 17.7073 123.872C17.7073 121.505 18.2224 119.417 19.2526 117.607C20.3106 115.798 21.7445 114.405 23.5543 113.431C25.3641 112.429 27.3827 111.927 29.6101 111.927C31.8375 111.927 33.8561 112.429 35.6659 113.431C37.4757 114.405 38.8957 115.798 39.9258 117.607C40.9839 119.417 41.5129 121.505 41.5129 123.872C41.5129 126.239 40.9699 128.327 39.8841 130.137C38.826 131.946 37.3782 133.352 35.5406 134.355C33.7308 135.329 31.6983 135.816 29.443 135.816ZM29.443 130.721C30.5011 130.721 31.4895 130.471 32.4083 129.969C33.3549 129.44 34.1067 128.661 34.6636 127.631C35.2204 126.6 35.4988 125.348 35.4988 123.872C35.4988 121.672 34.9141 119.988 33.7447 118.818C32.6032 117.621 31.1971 117.023 29.5266 117.023C27.856 117.023 26.4499 117.621 25.3084 118.818C24.1947 119.988 23.6378 121.672 23.6378 123.872C23.6378 126.071 24.1808 127.77 25.2666 128.967C26.3803 130.137 27.7725 130.721 29.443 130.721Z" fill="#39227A"/>
<path d="M44.2983 123.872C44.2983 121.477 44.7856 119.389 45.7601 117.607C46.7346 115.798 48.085 114.405 49.8112 113.431C51.5375 112.429 53.5143 111.927 55.7417 111.927C58.6095 111.927 60.9761 112.651 62.8416 114.099C64.7349 115.519 66.0018 117.524 66.6421 120.113H60.3358C60.0017 119.111 59.4309 118.331 58.6234 117.774C57.8438 117.19 56.8693 116.897 55.6999 116.897C54.0294 116.897 52.7069 117.51 51.7324 118.735C50.7579 119.932 50.2706 121.644 50.2706 123.872C50.2706 126.071 50.7579 127.784 51.7324 129.009C52.7069 130.206 54.0294 130.805 55.6999 130.805C58.0666 130.805 59.6119 129.747 60.3358 127.631H66.6421C66.0018 130.137 64.7349 132.127 62.8416 133.603C60.9483 135.079 58.5817 135.816 55.7417 135.816C53.5143 135.816 51.5375 135.329 49.8112 134.355C48.085 133.352 46.7346 131.96 45.7601 130.178C44.7856 128.369 44.2983 126.266 44.2983 123.872Z" fill="#39227A"/>
<path d="M69.4221 123.788C69.4221 121.45 69.8815 119.375 70.8003 117.566C71.7469 115.756 73.0138 114.364 74.6008 113.389C76.2157 112.415 78.0116 111.927 79.9884 111.927C81.7146 111.927 83.2181 112.275 84.4989 112.971C85.8075 113.668 86.8516 114.545 87.6312 115.603V112.303H93.52V135.441H87.6312V132.058C86.8795 133.144 85.8354 134.048 84.4989 134.772C83.1903 135.468 81.6729 135.816 79.9466 135.816C77.9976 135.816 76.2157 135.315 74.6008 134.313C73.0138 133.311 71.7469 131.905 70.8003 130.095C69.8815 128.257 69.4221 126.155 69.4221 123.788ZM87.6312 123.872C87.6312 122.452 87.3528 121.241 86.7959 120.238C86.2391 119.208 85.4873 118.429 84.5407 117.9C83.594 117.343 82.5778 117.064 81.4919 117.064C80.406 117.064 79.4037 117.329 78.4849 117.858C77.5661 118.387 76.8143 119.166 76.2296 120.197C75.6728 121.199 75.3943 122.396 75.3943 123.788C75.3943 125.181 75.6728 126.406 76.2296 127.464C76.8143 128.494 77.5661 129.287 78.4849 129.844C79.4315 130.401 80.4339 130.679 81.4919 130.679C82.5778 130.679 83.594 130.415 84.5407 129.886C85.4873 129.329 86.2391 128.549 86.7959 127.547C87.3528 126.517 87.6312 125.292 87.6312 123.872Z" fill="#39227A"/>
<path d="M105.078 104.535V135.441H99.2305V104.535H105.078Z" fill="#39227A"/>
<path d="M120.919 135.733C118.887 135.733 117.049 135.385 115.407 134.689C113.792 133.993 112.511 132.99 111.564 131.682C110.618 130.373 110.13 128.828 110.103 127.046H116.367C116.451 128.243 116.868 129.19 117.62 129.886C118.4 130.582 119.458 130.93 120.794 130.93C122.159 130.93 123.23 130.61 124.01 129.969C124.79 129.301 125.179 128.438 125.179 127.38C125.179 126.517 124.915 125.807 124.386 125.25C123.857 124.693 123.189 124.262 122.381 123.955C121.602 123.621 120.516 123.259 119.124 122.87C117.23 122.313 115.685 121.77 114.488 121.241C113.318 120.684 112.302 119.863 111.439 118.777C110.604 117.663 110.186 116.187 110.186 114.35C110.186 112.623 110.618 111.12 111.481 109.839C112.344 108.558 113.555 107.584 115.114 106.916C116.673 106.22 118.455 105.872 120.46 105.872C123.467 105.872 125.903 106.609 127.769 108.085C129.662 109.533 130.706 111.565 130.901 114.183H124.469C124.414 113.18 123.982 112.359 123.175 111.719C122.395 111.05 121.351 110.716 120.042 110.716C118.901 110.716 117.982 111.009 117.286 111.593C116.618 112.178 116.284 113.027 116.284 114.141C116.284 114.92 116.534 115.575 117.035 116.104C117.564 116.605 118.205 117.023 118.957 117.357C119.736 117.663 120.822 118.025 122.214 118.443C124.107 118.999 125.653 119.556 126.85 120.113C128.047 120.67 129.077 121.505 129.941 122.619C130.804 123.733 131.235 125.194 131.235 127.004C131.235 128.563 130.832 130.011 130.024 131.348C129.217 132.684 128.033 133.756 126.474 134.564C124.915 135.343 123.063 135.733 120.919 135.733Z" fill="#39227A"/>
<path d="M143.112 117.106V128.299C143.112 129.078 143.293 129.649 143.655 130.011C144.045 130.345 144.685 130.512 145.576 130.512H148.291V135.441H144.615C139.687 135.441 137.223 133.046 137.223 128.257V117.106H134.467V112.303H137.223V106.582H143.112V112.303H148.291V117.106H143.112Z" fill="#39227A"/>
<path d="M150.993 123.788C150.993 121.45 151.452 119.375 152.371 117.566C153.317 115.756 154.584 114.364 156.171 113.389C157.786 112.415 159.582 111.927 161.559 111.927C163.285 111.927 164.789 112.275 166.069 112.971C167.378 113.668 168.422 114.545 169.202 115.603V112.303H175.09V135.441H169.202V132.058C168.45 133.144 167.406 134.048 166.069 134.772C164.761 135.468 163.243 135.816 161.517 135.816C159.568 135.816 157.786 135.315 156.171 134.313C154.584 133.311 153.317 131.905 152.371 130.095C151.452 128.257 150.993 126.155 150.993 123.788ZM169.202 123.872C169.202 122.452 168.923 121.241 168.366 120.238C167.81 119.208 167.058 118.429 166.111 117.9C165.165 117.343 164.148 117.064 163.062 117.064C161.977 117.064 160.974 117.329 160.055 117.858C159.137 118.387 158.385 119.166 157.8 120.197C157.243 121.199 156.965 122.396 156.965 123.788C156.965 125.181 157.243 126.406 157.8 127.464C158.385 128.494 159.137 129.287 160.055 129.844C161.002 130.401 162.004 130.679 163.062 130.679C164.148 130.679 165.165 130.415 166.111 129.886C167.058 129.329 167.81 128.549 168.366 127.547C168.923 126.517 169.202 125.292 169.202 123.872Z" fill="#39227A"/>
<path d="M179.298 123.872C179.298 121.477 179.785 119.389 180.759 117.607C181.734 115.798 183.084 114.405 184.81 113.431C186.537 112.429 188.514 111.927 190.741 111.927C193.609 111.927 195.975 112.651 197.841 114.099C199.734 115.519 201.001 117.524 201.641 120.113H195.335C195.001 119.111 194.43 118.331 193.623 117.774C192.843 117.19 191.869 116.897 190.699 116.897C189.029 116.897 187.706 117.51 186.732 118.735C185.757 119.932 185.27 121.644 185.27 123.872C185.27 126.071 185.757 127.784 186.732 129.009C187.706 130.206 189.029 130.805 190.699 130.805C193.066 130.805 194.611 129.747 195.335 127.631H201.641C201.001 130.137 199.734 132.127 197.841 133.603C195.948 135.079 193.581 135.816 190.741 135.816C188.514 135.816 186.537 135.329 184.81 134.355C183.084 133.352 181.734 131.96 180.759 130.178C179.785 128.369 179.298 126.266 179.298 123.872Z" fill="#39227A"/>
<path d="M219.623 135.441L211.772 125.584V135.441H205.925V104.535H211.772V122.118L219.54 112.303H227.141L216.951 123.914L227.224 135.441H219.623Z" fill="#39227A"/>
</svg>
