<svg width="228" height="137" viewBox="0 0 228 137" fill="none" xmlns="http://www.w3.org/2000/svg">
<path fill-rule="evenodd" clip-rule="evenodd" d="M123.416 32.8241L153.658 32.8241C154.233 32.8241 154.7 32.3577 154.7 31.7823V1.54218C154.7 0.966795 154.233 0.500355 153.658 0.500355L123.416 0.500351C122.84 0.500351 122.374 0.966792 122.374 1.54218L122.374 31.7823C122.374 32.3577 122.84 32.8241 123.416 32.8241ZM143.887 57.8009C144.815 57.8009 145.28 58.9231 144.624 59.5794L122.048 82.1538C121.391 82.8102 120.269 82.3453 120.269 81.4171V58.8428C120.269 58.2674 120.736 57.8009 121.311 57.8009H143.887ZM74.271 36.5291C73.3427 36.5291 72.8779 35.407 73.5342 34.7506L96.1103 12.1762C96.7667 11.5199 97.8889 11.9848 97.8889 12.9129L97.8889 35.4873C97.8889 36.0627 97.4225 36.5292 96.847 36.5292L74.271 36.5291ZM104.14 52.5917L145.817 52.5917C146.392 52.5917 146.858 52.1253 146.858 51.5499V39.048C146.858 38.4726 146.392 38.0061 145.817 38.0061H118.206C117.631 38.0061 117.164 37.5397 117.164 36.9643L117.164 9.87677C117.164 9.30138 116.698 8.83495 116.122 8.83495L104.14 8.83495C103.565 8.83495 103.098 9.30138 103.098 9.87677L103.098 51.5499C103.098 52.1253 103.565 52.5917 104.14 52.5917Z" fill="#E5E5E5"/>
<path d="M5.84697 131.055H15.4527V135.691H0V106.539H5.84697V131.055Z" fill="#E5E5E5"/>
<path d="M29.443 136.066C27.2156 136.066 25.2109 135.579 23.429 134.605C21.6471 133.602 20.241 132.196 19.2108 130.387C18.2085 128.577 17.7073 126.489 17.7073 124.122C17.7073 121.755 18.2224 119.667 19.2526 117.857C20.3106 116.048 21.7445 114.655 23.5543 113.681C25.3641 112.679 27.3827 112.177 29.6101 112.177C31.8375 112.177 33.8561 112.679 35.6659 113.681C37.4757 114.655 38.8957 116.048 39.9258 117.857C40.9839 119.667 41.5129 121.755 41.5129 124.122C41.5129 126.489 40.9699 128.577 39.8841 130.387C38.826 132.196 37.3782 133.602 35.5406 134.605C33.7308 135.579 31.6983 136.066 29.443 136.066ZM29.443 130.971C30.5011 130.971 31.4895 130.721 32.4083 130.219C33.3549 129.69 34.1067 128.911 34.6636 127.881C35.2204 126.85 35.4988 125.598 35.4988 124.122C35.4988 121.922 34.9141 120.238 33.7447 119.068C32.6032 117.871 31.1971 117.273 29.5266 117.273C27.856 117.273 26.4499 117.871 25.3084 119.068C24.1947 120.238 23.6378 121.922 23.6378 124.122C23.6378 126.321 24.1808 128.02 25.2666 129.217C26.3803 130.387 27.7725 130.971 29.443 130.971Z" fill="#E5E5E5"/>
<path d="M44.2983 124.122C44.2983 121.727 44.7856 119.639 45.7601 117.857C46.7346 116.048 48.085 114.655 49.8112 113.681C51.5375 112.679 53.5143 112.177 55.7417 112.177C58.6095 112.177 60.9761 112.901 62.8416 114.349C64.7349 115.769 66.0018 117.774 66.6421 120.363H60.3358C60.0017 119.361 59.4309 118.581 58.6234 118.024C57.8438 117.44 56.8693 117.147 55.6999 117.147C54.0294 117.147 52.7069 117.76 51.7324 118.985C50.7579 120.182 50.2706 121.894 50.2706 124.122C50.2706 126.321 50.7579 128.034 51.7324 129.259C52.7069 130.456 54.0294 131.055 55.6999 131.055C58.0666 131.055 59.6119 129.997 60.3358 127.881H66.6421C66.0018 130.387 64.7349 132.377 62.8416 133.853C60.9483 135.329 58.5817 136.066 55.7417 136.066C53.5143 136.066 51.5375 135.579 49.8112 134.605C48.085 133.602 46.7346 132.21 45.7601 130.428C44.7856 128.619 44.2983 126.516 44.2983 124.122Z" fill="#E5E5E5"/>
<path d="M69.4221 124.038C69.4221 121.7 69.8815 119.625 70.8003 117.816C71.7469 116.006 73.0138 114.614 74.6008 113.639C76.2157 112.665 78.0116 112.177 79.9884 112.177C81.7146 112.177 83.2181 112.525 84.4989 113.221C85.8075 113.918 86.8516 114.795 87.6312 115.853V112.553H93.52V135.691H87.6312V132.308C86.8795 133.394 85.8354 134.298 84.4989 135.022C83.1903 135.718 81.6729 136.066 79.9466 136.066C77.9976 136.066 76.2157 135.565 74.6008 134.563C73.0138 133.561 71.7469 132.155 70.8003 130.345C69.8815 128.507 69.4221 126.405 69.4221 124.038ZM87.6312 124.122C87.6312 122.702 87.3528 121.491 86.7959 120.488C86.2391 119.458 85.4873 118.679 84.5407 118.15C83.594 117.593 82.5778 117.314 81.4919 117.314C80.406 117.314 79.4037 117.579 78.4849 118.108C77.5661 118.637 76.8143 119.416 76.2296 120.447C75.6728 121.449 75.3943 122.646 75.3943 124.038C75.3943 125.431 75.6728 126.656 76.2296 127.714C76.8143 128.744 77.5661 129.537 78.4849 130.094C79.4315 130.651 80.4339 130.929 81.4919 130.929C82.5778 130.929 83.594 130.665 84.5407 130.136C85.4873 129.579 86.2391 128.799 86.7959 127.797C87.3528 126.767 87.6312 125.542 87.6312 124.122Z" fill="#E5E5E5"/>
<path d="M105.078 104.785V135.691H99.2305V104.785H105.078Z" fill="#E5E5E5"/>
<path d="M120.919 135.983C118.887 135.983 117.049 135.635 115.407 134.939C113.792 134.243 112.511 133.24 111.564 131.932C110.618 130.623 110.13 129.078 110.103 127.296H116.367C116.451 128.493 116.868 129.44 117.62 130.136C118.4 130.832 119.458 131.18 120.794 131.18C122.159 131.18 123.23 130.86 124.01 130.219C124.79 129.551 125.179 128.688 125.179 127.63C125.179 126.767 124.915 126.057 124.386 125.5C123.857 124.943 123.189 124.512 122.381 124.205C121.602 123.871 120.516 123.509 119.124 123.12C117.23 122.563 115.685 122.02 114.488 121.491C113.318 120.934 112.302 120.113 111.439 119.027C110.604 117.913 110.186 116.437 110.186 114.6C110.186 112.873 110.618 111.37 111.481 110.089C112.344 108.808 113.555 107.834 115.114 107.166C116.673 106.47 118.455 106.122 120.46 106.122C123.467 106.122 125.903 106.859 127.769 108.335C129.662 109.783 130.706 111.815 130.901 114.433H124.469C124.414 113.43 123.982 112.609 123.175 111.969C122.395 111.3 121.351 110.966 120.042 110.966C118.901 110.966 117.982 111.259 117.286 111.843C116.618 112.428 116.284 113.277 116.284 114.391C116.284 115.17 116.534 115.825 117.035 116.354C117.564 116.855 118.205 117.273 118.957 117.607C119.736 117.913 120.822 118.275 122.214 118.693C124.107 119.249 125.653 119.806 126.85 120.363C128.047 120.92 129.077 121.755 129.941 122.869C130.804 123.983 131.235 125.444 131.235 127.254C131.235 128.813 130.832 130.261 130.024 131.598C129.217 132.934 128.033 134.006 126.474 134.814C124.915 135.593 123.063 135.983 120.919 135.983Z" fill="#E5E5E5"/>
<path d="M143.112 117.356V128.549C143.112 129.328 143.293 129.899 143.655 130.261C144.045 130.595 144.685 130.762 145.576 130.762H148.291V135.691H144.615C139.687 135.691 137.223 133.296 137.223 128.507V117.356H134.467V112.553H137.223V106.832H143.112V112.553H148.291V117.356H143.112Z" fill="#E5E5E5"/>
<path d="M150.993 124.038C150.993 121.7 151.452 119.625 152.371 117.816C153.317 116.006 154.584 114.614 156.171 113.639C157.786 112.665 159.582 112.177 161.559 112.177C163.285 112.177 164.789 112.525 166.069 113.221C167.378 113.918 168.422 114.795 169.202 115.853V112.553H175.09V135.691H169.202V132.308C168.45 133.394 167.406 134.298 166.069 135.022C164.761 135.718 163.243 136.066 161.517 136.066C159.568 136.066 157.786 135.565 156.171 134.563C154.584 133.561 153.317 132.155 152.371 130.345C151.452 128.507 150.993 126.405 150.993 124.038ZM169.202 124.122C169.202 122.702 168.923 121.491 168.366 120.488C167.81 119.458 167.058 118.679 166.111 118.15C165.165 117.593 164.148 117.314 163.062 117.314C161.977 117.314 160.974 117.579 160.055 118.108C159.137 118.637 158.385 119.416 157.8 120.447C157.243 121.449 156.965 122.646 156.965 124.038C156.965 125.431 157.243 126.656 157.8 127.714C158.385 128.744 159.137 129.537 160.055 130.094C161.002 130.651 162.004 130.929 163.062 130.929C164.148 130.929 165.165 130.665 166.111 130.136C167.058 129.579 167.81 128.799 168.366 127.797C168.923 126.767 169.202 125.542 169.202 124.122Z" fill="#E5E5E5"/>
<path d="M179.298 124.122C179.298 121.727 179.785 119.639 180.759 117.857C181.734 116.048 183.084 114.655 184.81 113.681C186.537 112.679 188.514 112.177 190.741 112.177C193.609 112.177 195.975 112.901 197.841 114.349C199.734 115.769 201.001 117.774 201.641 120.363H195.335C195.001 119.361 194.43 118.581 193.623 118.024C192.843 117.44 191.869 117.147 190.699 117.147C189.029 117.147 187.706 117.76 186.732 118.985C185.757 120.182 185.27 121.894 185.27 124.122C185.27 126.321 185.757 128.034 186.732 129.259C187.706 130.456 189.029 131.055 190.699 131.055C193.066 131.055 194.611 129.997 195.335 127.881H201.641C201.001 130.387 199.734 132.377 197.841 133.853C195.948 135.329 193.581 136.066 190.741 136.066C188.514 136.066 186.537 135.579 184.81 134.605C183.084 133.602 181.734 132.21 180.759 130.428C179.785 128.619 179.298 126.516 179.298 124.122Z" fill="#E5E5E5"/>
<path d="M219.623 135.691L211.772 125.834V135.691H205.925V104.785H211.772V122.368L219.54 112.553H227.141L216.951 124.164L227.224 135.691H219.623Z" fill="#E5E5E5"/>
</svg>
