<svg width="82" height="83" viewBox="0 0 82 83" fill="none" xmlns="http://www.w3.org/2000/svg">
<path fill-rule="evenodd" clip-rule="evenodd" d="M50.2662 32.7911L80.5086 32.7911C81.084 32.7911 81.5505 32.3246 81.5505 31.7492V1.50912C81.5505 0.933729 81.084 0.467289 80.5086 0.467289L50.2662 0.467285C49.6908 0.467285 49.2243 0.933726 49.2243 1.50911L49.2243 31.7492C49.2243 32.3246 49.6908 32.7911 50.2662 32.7911ZM70.7376 57.7679C71.6659 57.7679 72.1307 58.8901 71.4744 59.5464L48.8983 82.1208C48.242 82.7771 47.1197 82.3123 47.1197 81.3841V58.8097C47.1197 58.2343 47.5862 57.7679 48.1616 57.7679H70.7376ZM1.12163 36.4961C0.19339 36.4961 -0.27147 35.3739 0.384893 34.7176L22.9609 12.1432C23.6173 11.4869 24.7396 11.9517 24.7396 12.8799L24.7396 35.4543C24.7396 36.0296 24.2731 36.4961 23.6977 36.4961L1.12163 36.4961ZM30.991 52.5587L72.6672 52.5587C73.2426 52.5587 73.7091 52.0922 73.7091 51.5168V39.0149C73.7091 38.4395 73.2426 37.9731 72.6672 37.9731H45.0567C44.4813 37.9731 44.0148 37.5066 44.0148 36.9312L44.0148 9.8437C44.0148 9.26832 43.5483 8.80188 42.9729 8.80188L30.991 8.80188C30.4156 8.80188 29.9491 9.26831 29.9491 9.8437L29.9491 51.5168C29.9491 52.0922 30.4156 52.5587 30.991 52.5587Z" fill="#E5E5E5"/>
</svg>
