<?xml version="1.0" encoding="utf-8"?>
<!-- Generator: Adobe Illustrator 27.3.1, SVG Export Plug-In . SVG Version: 6.00 Build 0)  -->
<svg version="1.1" id="Layer_1" xmlns="http://www.w3.org/2000/svg" xmlns:xlink="http://www.w3.org/1999/xlink" x="0px" y="0px"
	 viewBox="0 0 468 177.5" style="enable-background:new 0 0 468 177.5;" xml:space="preserve">
<style type="text/css">
	.st0{fill:#39227A;}
	.st1{fill-rule:evenodd;clip-rule:evenodd;fill:url(#SVGID_1_);}
	.st2{fill:url(#SVGID_00000120550275018953221090000005774828057289069503_);}
	.st3{fill:url(#SVGID_00000060752182764855030170000000897628115517225091_);}
</style>
<path class="st0" d="M159.2,90.8h11.5v5.5h-18.5V61.5h7V90.8z"/>
<path class="st0" d="M187.4,96.8c-2.7,0-5.1-0.6-7.2-1.7c-2.1-1.2-3.8-2.9-5-5c-1.2-2.2-1.8-4.7-1.8-7.5s0.6-5.3,1.8-7.5
	c1.3-2.2,3-3.8,5.1-5c2.2-1.2,4.6-1.8,7.2-1.8c2.7,0,5.1,0.6,7.2,1.8c2.2,1.2,3.9,2.8,5.1,5c1.3,2.2,1.9,4.7,1.9,7.5
	s-0.6,5.3-1.9,7.5c-1.3,2.2-3,3.8-5.2,5C192.5,96.2,190.1,96.8,187.4,96.8z M187.4,90.7c1.3,0,2.4-0.3,3.5-0.9s2-1.6,2.7-2.8
	c0.7-1.2,1-2.7,1-4.5c0-2.6-0.7-4.6-2.1-6c-1.4-1.4-3-2.1-5-2.1s-3.7,0.7-5,2.1s-2,3.4-2,6s0.6,4.7,1.9,6.1
	C183.7,90,185.4,90.7,187.4,90.7z"/>
<path class="st0" d="M205.2,82.5c0-2.9,0.6-5.4,1.7-7.5c1.2-2.2,2.8-3.8,4.8-5c2.1-1.2,4.4-1.8,7.1-1.8c3.4,0,6.3,0.9,8.5,2.6
	c2.3,1.7,3.8,4.1,4.5,7.2h-7.5c-0.4-1.2-1.1-2.1-2-2.8c-0.9-0.7-2.1-1-3.5-1c-2,0-3.6,0.7-4.7,2.2c-1.2,1.4-1.7,3.5-1.7,6.1
	s0.6,4.7,1.7,6.1c1.2,1.4,2.7,2.1,4.7,2.1c2.8,0,4.7-1.3,5.5-3.8h7.5c-0.8,3-2.3,5.4-4.5,7.1c-2.3,1.8-5.1,2.6-8.5,2.6
	c-2.7,0-5-0.6-7.1-1.7c-2.1-1.2-3.7-2.9-4.8-5C205.7,87.9,205.2,85.4,205.2,82.5z"/>
<path class="st0" d="M235.2,82.3c0-2.8,0.5-5.3,1.6-7.4c1.1-2.2,2.6-3.8,4.5-5s4.1-1.7,6.4-1.7c2.1,0,3.9,0.4,5.4,1.2
	c1.6,0.8,2.8,1.9,3.7,3.1v-3.9h7v27.7h-7v-4c-0.9,1.3-2.1,2.4-3.7,3.2c-1.6,0.8-3.4,1.2-5.4,1.2c-2.3,0-4.5-0.6-6.4-1.8
	c-1.9-1.2-3.4-2.9-4.5-5C235.8,87.6,235.2,85.1,235.2,82.3z M257,82.4c0-1.7-0.3-3.1-1-4.3c-0.7-1.2-1.6-2.2-2.7-2.8
	c-1.1-0.7-2.3-1-3.6-1s-2.5,0.3-3.6,0.9s-2,1.6-2.7,2.8c-0.7,1.2-1,2.6-1,4.3c0,1.7,0.3,3.1,1,4.4c0.7,1.2,1.6,2.2,2.7,2.8
	c1.1,0.7,2.3,1,3.6,1s2.5-0.3,3.6-0.9c1.1-0.7,2-1.6,2.7-2.8C256.7,85.6,257,84.1,257,82.4z"/>
<path class="st0" d="M277.9,59.3v37h-7v-37H277.9z"/>
<path class="st0" d="M296.8,96.7c-2.4,0-4.6-0.4-6.6-1.2c-1.9-0.8-3.5-2-4.6-3.6s-1.7-3.4-1.7-5.5h7.5c0.1,1.4,0.6,2.6,1.5,3.4
	s2.2,1.2,3.8,1.2c1.6,0,2.9-0.4,3.8-1.1c0.9-0.8,1.4-1.8,1.4-3.1c0-1-0.3-1.9-0.9-2.5c-0.6-0.7-1.4-1.2-2.4-1.5
	c-0.9-0.4-2.2-0.8-3.9-1.3c-2.3-0.7-4.1-1.3-5.5-1.9c-1.4-0.7-2.6-1.6-3.6-2.9s-1.5-3.1-1.5-5.3c0-2.1,0.5-3.9,1.5-5.4
	s2.5-2.7,4.3-3.5c1.9-0.8,4-1.2,6.4-1.2c3.6,0,6.5,0.9,8.7,2.6c2.3,1.7,3.5,4.2,3.7,7.3H301c-0.1-1.2-0.6-2.2-1.5-2.9
	c-0.9-0.8-2.2-1.2-3.7-1.2c-1.4,0-2.5,0.3-3.3,1s-1.2,1.7-1.2,3c0,0.9,0.3,1.7,0.9,2.3c0.6,0.6,1.4,1.1,2.3,1.5s2.2,0.8,3.9,1.3
	c2.3,0.7,4.1,1.3,5.5,2s2.7,1.7,3.7,3s1.5,3.1,1.5,5.2c0,1.9-0.5,3.6-1.4,5.2c-1,1.6-2.4,2.9-4.2,3.8
	C301.6,96.2,299.4,96.7,296.8,96.7z"/>
<path class="st0" d="M323.4,74.4v13.4c0,0.9,0.2,1.6,0.6,2c0.5,0.4,1.2,0.6,2.3,0.6h3.2v5.9h-4.4c-5.9,0-8.8-2.9-8.8-8.6V74.4H313
	v-5.7h3.3v-6.8h7v6.8h6.2v5.7H323.4z"/>
<path class="st0" d="M332.8,82.3c0-2.8,0.5-5.3,1.6-7.4c1.1-2.2,2.6-3.8,4.5-5s4.1-1.7,6.4-1.7c2.1,0,3.9,0.4,5.4,1.2
	c1.6,0.8,2.8,1.9,3.7,3.1v-3.9h7v27.7h-7v-4c-0.9,1.3-2.1,2.4-3.7,3.2c-1.6,0.8-3.4,1.2-5.4,1.2c-2.3,0-4.5-0.6-6.4-1.8
	c-1.9-1.2-3.4-2.9-4.5-5C333.3,87.6,332.8,85.1,332.8,82.3z M354.6,82.4c0-1.7-0.3-3.1-1-4.3c-0.7-1.2-1.6-2.2-2.7-2.8
	c-1.1-0.7-2.3-1-3.6-1c-1.3,0-2.5,0.3-3.6,0.9s-2,1.6-2.7,2.8c-0.7,1.2-1,2.6-1,4.3c0,1.7,0.3,3.1,1,4.4c0.7,1.2,1.6,2.2,2.7,2.8
	c1.1,0.7,2.3,1,3.6,1c1.3,0,2.5-0.3,3.6-0.9c1.1-0.7,2-1.6,2.7-2.8C354.2,85.6,354.6,84.1,354.6,82.4z"/>
<path class="st0" d="M366.7,82.5c0-2.9,0.6-5.4,1.7-7.5c1.2-2.2,2.8-3.8,4.8-5c2.1-1.2,4.4-1.8,7.1-1.8c3.4,0,6.3,0.9,8.5,2.6
	c2.3,1.7,3.8,4.1,4.5,7.2h-7.5c-0.4-1.2-1.1-2.1-2-2.8c-0.9-0.7-2.1-1-3.5-1c-2,0-3.6,0.7-4.7,2.2c-1.2,1.4-1.7,3.5-1.7,6.1
	s0.6,4.7,1.7,6.1c1.2,1.4,2.7,2.1,4.7,2.1c2.8,0,4.7-1.3,5.5-3.8h7.5c-0.8,3-2.3,5.4-4.5,7.1c-2.3,1.8-5.1,2.6-8.5,2.6
	c-2.7,0-5-0.6-7.1-1.7c-2.1-1.2-3.7-2.9-4.8-5C367.2,87.9,366.7,85.4,366.7,82.5z"/>
<path class="st0" d="M414.9,96.3l-9.4-11.8v11.8h-7v-37h7v21l9.3-11.7h9.1l-12.2,13.9L424,96.3H414.9z"/>
<linearGradient id="SVGID_1_" gradientUnits="userSpaceOnUse" x1="121.4645" y1="1577.7678" x2="57.9126" y2="1640.6914" gradientTransform="matrix(1 0 0 1 0 -1521.4991)">
	<stop  offset="0" style="stop-color:#4D29B4"/>
	<stop  offset="1" style="stop-color:#836FFF"/>
</linearGradient>
<path class="st1" d="M120.3,106.1c1,0,1.5,1.2,0.8,1.9l-24.4,24.4c-0.7,0.7-1.9,0.2-1.9-0.8v-24.4c0-0.6,0.5-1.1,1.1-1.1
	C95.9,106.1,120.3,106.1,120.3,106.1z M45.1,83.2c-1,0-1.5-1.2-0.8-1.9l24.4-24.4c0.7-0.7,1.9-0.2,1.9,0.8V82c0,0.6-0.5,1.2-1.1,1.2
	H45.1L45.1,83.2z"/>
<linearGradient id="SVGID_00000114770710487768484020000009969079871099784860_" gradientUnits="userSpaceOnUse" x1="94.5128" y1="1602.931" x2="138.4985" y2="1559.7251" gradientTransform="matrix(1 0 0 1 0 -1521.4991)">
	<stop  offset="0" style="stop-color:#70FFE5"/>
	<stop  offset="1" style="stop-color:#6295E1"/>
</linearGradient>
<path style="fill:url(#SVGID_00000114770710487768484020000009969079871099784860_);" d="M98.2,79.2h32.7c0.6,0,1.1-0.5,1.1-1.1
	V45.4c0-0.6-0.5-1.1-1.1-1.1H98.2c-0.6,0-1.1,0.5-1.1,1.1V78C97.1,78.6,97.6,79.2,98.2,79.2z"/>
<linearGradient id="SVGID_00000090266388877551367350000008794942668266665656_" gradientUnits="userSpaceOnUse" x1="115.9492" y1="1583.1504" x2="74.582" y2="1622.4288" gradientTransform="matrix(1 0 0 1 0 -1521.4991)">
	<stop  offset="7.475110e-03" style="stop-color:#654FEC"/>
	<stop  offset="1" style="stop-color:#71B2FF"/>
</linearGradient>
<path style="fill:url(#SVGID_00000090266388877551367350000008794942668266665656_);" d="M122.4,100.5h-45c-0.6,0-1.1-0.5-1.1-1.1
	v-45c0-0.6,0.5-1.1,1.1-1.1h12.9c0.6,0,1.1,0.5,1.1,1.1v29.2c0,0.6,0.5,1.1,1.1,1.1h29.8c0.6,0,1.1,0.5,1.1,1.1v13.5
	C123.5,100,123,100.5,122.4,100.5z"/>
</svg>
