<?xml version="1.0" encoding="utf-8"?>
<!-- Generator: Adobe Illustrator 27.3.1, SVG Export Plug-In . SVG Version: 6.00 Build 0)  -->
<svg version="1.1" id="Layer_1" xmlns="http://www.w3.org/2000/svg" xmlns:xlink="http://www.w3.org/1999/xlink" x="0px" y="0px"
	 viewBox="0 0 281.5 189.7" style="enable-background:new 0 0 281.5 189.7;" xml:space="preserve">
<style type="text/css">
	.st0{fill-rule:evenodd;clip-rule:evenodd;fill:#39227A;}
	.st1{fill:#39227A;}
</style>
<path class="st0" d="M150.5,59.6h30.3c0.6,0,1-0.5,1-1V28.3c0-0.6-0.5-1-1-1h-30.2c-0.6,0-1,0.5-1,1v30.2
	C149.6,59.1,149.9,59.6,150.5,59.6z M171,84.5c0.9,0,1.4,1.1,0.7,1.8l-22.6,22.6c-0.7,0.7-1.8,0.2-1.8-0.7V85.5c0-0.6,0.5-1,1-1H171
	L171,84.5z M101.4,63.3c-0.9,0-1.4-1.1-0.7-1.8l22.6-22.6c0.7-0.7,1.8-0.2,1.8,0.7v22.7c0,0.6-0.5,1-1,1L101.4,63.3L101.4,63.3z
	 M131.2,79.3h41.7c0.6,0,1-0.5,1-1V65.8c0-0.6-0.5-1-1-1h-27.6c-0.6,0-1-0.5-1-1V36.6c0-0.6-0.5-1-1-1h-12c-0.6,0-1,0.5-1,1v41.7
	C130.3,78.9,130.7,79.3,131.2,79.3z"/>
<path class="st1" d="M32.9,157.8h9.6v4.6H27.1v-29.2h5.8C32.9,133.2,32.9,157.8,32.9,157.8z"/>
<path class="st1" d="M56.5,162.8c-2.2,0-4.2-0.5-6-1.5s-3.2-2.4-4.2-4.2s-1.5-3.9-1.5-6.3s0.5-4.5,1.5-6.3c1.1-1.8,2.5-3.2,4.3-4.2
	s3.8-1.5,6.1-1.5c2.2,0,4.2,0.5,6.1,1.5c1.8,1,3.2,2.4,4.3,4.2s1.6,3.9,1.6,6.3s-0.5,4.5-1.6,6.3s-2.5,3.2-4.3,4.2
	C60.8,162.3,58.8,162.8,56.5,162.8z M56.5,157.7c1.1,0,2-0.2,3-0.8c0.9-0.5,1.7-1.3,2.3-2.3s0.8-2.3,0.8-3.8c0-2.2-0.6-3.9-1.8-5.1
	c-1.1-1.2-2.5-1.8-4.2-1.8s-3.1,0.6-4.2,1.8c-1.1,1.2-1.7,2.9-1.7,5.1c0,2.2,0.5,3.9,1.6,5.1C53.5,157.1,54.9,157.7,56.5,157.7z"/>
<path class="st1" d="M71.4,150.9c0-2.4,0.5-4.5,1.5-6.3s2.3-3.2,4.1-4.2c1.7-1,3.7-1.5,5.9-1.5c2.9,0,5.2,0.7,7.1,2.2
	c1.9,1.4,3.2,3.4,3.8,6h-6.3c-0.3-1-0.9-1.8-1.7-2.3c-0.8-0.6-1.8-0.9-2.9-0.9c-1.7,0-3,0.6-4,1.8s-1.5,2.9-1.5,5.1
	c0,2.2,0.5,3.9,1.5,5.1c1,1.2,2.3,1.8,4,1.8c2.4,0,3.9-1.1,4.6-3.2h6.3c-0.6,2.5-1.9,4.5-3.8,6s-4.3,2.2-7.1,2.2
	c-2.2,0-4.2-0.5-5.9-1.5c-1.7-1-3.1-2.4-4.1-4.2C71.9,155.4,71.4,153.3,71.4,150.9z"/>
<path class="st1" d="M96.5,150.9c0-2.3,0.5-4.4,1.4-6.2s2.2-3.2,3.8-4.2c1.6-1,3.4-1.5,5.4-1.5c1.7,0,3.2,0.3,4.5,1s2.4,1.6,3.1,2.6
	v-3.3h5.9v23.1h-5.9V159c-0.8,1.1-1.8,2-3.1,2.7c-1.3,0.7-2.8,1-4.6,1c-1.9,0-3.7-0.5-5.3-1.5c-1.6-1-2.9-2.4-3.8-4.2
	C97,155.3,96.5,153.2,96.5,150.9z M114.7,151c0-1.4-0.3-2.6-0.8-3.6c-0.6-1-1.3-1.8-2.3-2.3c-0.9-0.6-2-0.8-3-0.8s-2.1,0.3-3,0.8
	s-1.7,1.3-2.3,2.3c-0.6,1-0.8,2.2-0.8,3.6c0,1.4,0.3,2.6,0.8,3.7c0.6,1,1.3,1.8,2.3,2.4c0.9,0.6,1.9,0.8,3,0.8s2.1-0.3,3-0.8
	c0.9-0.6,1.7-1.3,2.3-2.3C114.4,153.6,114.7,152.4,114.7,151z"/>
<path class="st1" d="M132.2,131.5v30.9h-5.8v-30.9H132.2z"/>
<path class="st1" d="M148,162.7c-2,0-3.9-0.3-5.5-1s-2.9-1.7-3.8-3c-0.9-1.3-1.4-2.9-1.5-4.6h6.3c0.1,1.2,0.5,2.1,1.3,2.8
	s1.8,1,3.2,1s2.4-0.3,3.2-1s1.2-1.5,1.2-2.6c0-0.9-0.3-1.6-0.8-2.1c-0.5-0.6-1.2-1-2-1.3s-1.9-0.7-3.3-1.1c-1.9-0.6-3.4-1.1-4.6-1.6
	c-1.2-0.6-2.2-1.4-3-2.5s-1.3-2.6-1.3-4.4c0-1.7,0.4-3.2,1.3-4.5s2.1-2.3,3.6-2.9c1.6-0.7,3.3-1,5.3-1c3,0,5.4,0.7,7.3,2.2
	c1.9,1.4,2.9,3.5,3.1,6.1h-6.4c-0.1-1-0.5-1.8-1.3-2.5s-1.8-1-3.1-1c-1.1,0-2.1,0.3-2.8,0.9c-0.7,0.6-1,1.4-1,2.5
	c0,0.8,0.2,1.4,0.8,2c0.5,0.5,1.2,0.9,1.9,1.3c0.8,0.3,1.9,0.7,3.3,1.1c1.9,0.6,3.4,1.1,4.6,1.7c1.2,0.6,2.2,1.4,3.1,2.5
	c0.9,1.1,1.3,2.6,1.3,4.4c0,1.6-0.4,3-1.2,4.3s-2,2.4-3.6,3.2C152,162.3,150.2,162.7,148,162.7z"/>
<path class="st1" d="M170.2,144.1v11.2c0,0.8,0.2,1.4,0.5,1.7c0.4,0.3,1,0.5,1.9,0.5h2.7v4.9h-3.7c-4.9,0-7.4-2.4-7.4-7.2V144h-2.8
	v-4.8h2.8v-5.6h5.9v5.7h5.2v4.8H170.2z"/>
<path class="st1" d="M178.1,150.9c0-2.3,0.5-4.4,1.4-6.2s2.2-3.2,3.8-4.2s3.4-1.5,5.4-1.5c1.7,0,3.2,0.3,4.5,1s2.4,1.6,3.1,2.6v-3.3
	h5.9v23.1h-5.9V159c-0.8,1.1-1.8,2-3.1,2.7s-2.8,1-4.6,1c-1.9,0-3.7-0.5-5.3-1.5s-2.9-2.4-3.8-4.2
	C178.5,155.3,178.1,153.2,178.1,150.9z M196.3,151c0-1.4-0.3-2.6-0.8-3.6c-0.6-1-1.3-1.8-2.3-2.3c-0.9-0.6-2-0.8-3-0.8
	c-1.1,0-2.1,0.3-3,0.8s-1.7,1.3-2.3,2.3s-0.8,2.2-0.8,3.6c0,1.4,0.3,2.6,0.8,3.7c0.6,1,1.3,1.8,2.3,2.4c0.9,0.6,1.9,0.8,3,0.8
	s2.1-0.3,3-0.8c0.9-0.6,1.7-1.3,2.3-2.3C196,153.6,196.3,152.4,196.3,151z"/>
<path class="st1" d="M206.4,150.9c0-2.4,0.5-4.5,1.5-6.3s2.3-3.2,4.1-4.2c1.7-1,3.7-1.5,5.9-1.5c2.9,0,5.2,0.7,7.1,2.2
	c1.9,1.4,3.2,3.4,3.8,6h-6.3c-0.3-1-0.9-1.8-1.7-2.3c-0.8-0.6-1.8-0.9-2.9-0.9c-1.7,0-3,0.6-4,1.8s-1.5,2.9-1.5,5.1
	c0,2.2,0.5,3.9,1.5,5.1c1,1.2,2.3,1.8,4,1.8c2.4,0,3.9-1.1,4.6-3.2h6.3c-0.6,2.5-1.9,4.5-3.8,6c-1.9,1.5-4.3,2.2-7.1,2.2
	c-2.2,0-4.2-0.5-5.9-1.5s-3.1-2.4-4.1-4.2C206.9,155.4,206.4,153.3,206.4,150.9z"/>
<path class="st1" d="M246.7,162.4l-7.9-9.9v9.9H233v-30.9h5.8v17.6l7.8-9.8h7.6L244,150.9l10.3,11.5H246.7z"/>
</svg>
