<?xml version="1.0" encoding="utf-8"?>
<!-- Generator: Adobe Illustrator 27.3.1, SVG Export Plug-In . SVG Version: 6.00 Build 0)  -->
<svg version="1.1" id="Layer_1" xmlns="http://www.w3.org/2000/svg" xmlns:xlink="http://www.w3.org/1999/xlink" x="0px" y="0px"
	 viewBox="0 0 281.7 189.7" style="enable-background:new 0 0 281.7 189.7;" xml:space="preserve">
<style type="text/css">
	.st0{fill:#39227A;}
	.st1{fill-rule:evenodd;clip-rule:evenodd;fill:url(#SVGID_1_);}
	.st2{fill:url(#SVGID_00000048497565331009175010000000602392111139921283_);}
	.st3{fill:url(#SVGID_00000032606236662586792990000000626483699180675505_);}
</style>
<path class="st0" d="M33.1,157.8h9.6v4.6H27.3v-29.2h5.8C33.1,133.2,33.1,157.8,33.1,157.8z"/>
<path class="st0" d="M56.7,162.9c-2.2,0-4.2-0.5-6-1.5s-3.2-2.4-4.2-4.2s-1.5-3.9-1.5-6.3s0.5-4.5,1.5-6.3c1.1-1.8,2.5-3.2,4.3-4.2
	s3.8-1.5,6.1-1.5c2.2,0,4.2,0.5,6.1,1.5c1.8,1,3.2,2.4,4.3,4.2s1.6,3.9,1.6,6.3c0,2.4-0.5,4.5-1.6,6.3s-2.5,3.2-4.3,4.2
	C61,162.4,59,162.9,56.7,162.9z M56.7,157.8c1.1,0,2-0.2,3-0.8c0.9-0.5,1.7-1.3,2.3-2.3s0.8-2.3,0.8-3.8c0-2.2-0.6-3.9-1.8-5.1
	c-1.1-1.2-2.5-1.8-4.2-1.8s-3.1,0.6-4.2,1.8c-1.1,1.2-1.7,2.9-1.7,5.1c0,2.2,0.5,3.9,1.6,5.1C53.7,157.2,55.1,157.8,56.7,157.8z"/>
<path class="st0" d="M71.6,150.9c0-2.4,0.5-4.5,1.5-6.3s2.3-3.2,4.1-4.2c1.7-1,3.7-1.5,5.9-1.5c2.9,0,5.2,0.7,7.1,2.2
	c1.9,1.4,3.2,3.4,3.8,6h-6.3c-0.3-1-0.9-1.8-1.7-2.3c-0.8-0.6-1.8-0.9-2.9-0.9c-1.7,0-3,0.6-4,1.8s-1.5,2.9-1.5,5.1
	c0,2.2,0.5,3.9,1.5,5.1c1,1.2,2.3,1.8,4,1.8c2.4,0,3.9-1.1,4.6-3.2H94c-0.6,2.5-1.9,4.5-3.8,6s-4.3,2.2-7.1,2.2
	c-2.2,0-4.2-0.5-5.9-1.5c-1.7-1-3.1-2.4-4.1-4.2C72.1,155.4,71.6,153.3,71.6,150.9z"/>
<path class="st0" d="M96.7,150.9c0-2.3,0.5-4.4,1.4-6.2s2.2-3.2,3.8-4.2c1.6-1,3.4-1.5,5.4-1.5c1.7,0,3.2,0.3,4.5,1s2.4,1.6,3.1,2.6
	v-3.3h5.9v23.1h-5.9V159c-0.8,1.1-1.8,2-3.1,2.7c-1.3,0.7-2.8,1-4.6,1c-1.9,0-3.7-0.5-5.3-1.5c-1.6-1-2.9-2.4-3.8-4.2
	C97.2,155.4,96.7,153.3,96.7,150.9z M114.9,151c0-1.4-0.3-2.6-0.8-3.6c-0.6-1-1.3-1.8-2.3-2.3c-0.9-0.6-2-0.8-3-0.8s-2.1,0.3-3,0.8
	s-1.7,1.3-2.3,2.3c-0.6,1-0.8,2.2-0.8,3.6s0.3,2.6,0.8,3.7c0.6,1,1.3,1.8,2.3,2.4c0.9,0.6,1.9,0.8,3,0.8s2.1-0.3,3-0.8
	c0.9-0.6,1.7-1.3,2.3-2.3C114.6,153.7,114.9,152.4,114.9,151z"/>
<path class="st0" d="M132.4,131.5v30.9h-5.8v-30.9H132.4z"/>
<path class="st0" d="M148.2,162.8c-2,0-3.9-0.3-5.5-1s-2.9-1.7-3.8-3c-0.9-1.3-1.4-2.9-1.5-4.6h6.3c0.1,1.2,0.5,2.1,1.3,2.8
	s1.8,1,3.2,1s2.4-0.3,3.2-1s1.2-1.5,1.2-2.6c0-0.9-0.3-1.6-0.8-2.1c-0.5-0.6-1.2-1-2-1.3s-1.9-0.7-3.3-1.1c-1.9-0.6-3.4-1.1-4.6-1.6
	c-1.2-0.6-2.2-1.4-3-2.5s-1.3-2.6-1.3-4.4c0-1.7,0.4-3.2,1.3-4.5s2.1-2.3,3.6-2.9c1.6-0.7,3.3-1,5.3-1c3,0,5.4,0.7,7.3,2.2
	c1.9,1.4,2.9,3.5,3.1,6.1h-6.4c-0.1-1-0.5-1.8-1.3-2.5s-1.8-1-3.1-1c-1.1,0-2.1,0.3-2.8,0.9c-0.7,0.6-1,1.4-1,2.5
	c0,0.8,0.2,1.4,0.8,2c0.5,0.5,1.2,0.9,1.9,1.3c0.8,0.3,1.9,0.7,3.3,1.1c1.9,0.6,3.4,1.1,4.6,1.7c1.2,0.6,2.2,1.4,3.1,2.5
	c0.9,1.1,1.3,2.6,1.3,4.4c0,1.6-0.4,3-1.2,4.3s-2,2.4-3.6,3.2C152.2,162.4,150.4,162.8,148.2,162.8z"/>
<path class="st0" d="M170.4,144.1v11.2c0,0.8,0.2,1.3,0.5,1.7c0.4,0.3,1,0.5,1.9,0.5h2.7v4.9h-3.7c-4.9,0-7.4-2.4-7.4-7.2V144h-2.8
	v-4.8h2.8v-5.7h5.9v5.7h5.2v4.8h-5.1L170.4,144.1L170.4,144.1z"/>
<path class="st0" d="M178.3,150.9c0-2.3,0.5-4.4,1.4-6.2s2.2-3.2,3.8-4.2s3.4-1.5,5.4-1.5c1.7,0,3.2,0.3,4.5,1s2.4,1.6,3.1,2.6v-3.3
	h5.9v23.1h-5.9V159c-0.8,1.1-1.8,2-3.1,2.7s-2.8,1-4.6,1c-1.9,0-3.7-0.5-5.3-1.5s-2.9-2.4-3.8-4.2
	C178.7,155.4,178.3,153.3,178.3,150.9z M196.5,151c0-1.4-0.3-2.6-0.8-3.6c-0.6-1-1.3-1.8-2.3-2.3c-0.9-0.6-2-0.8-3-0.8
	c-1.1,0-2.1,0.3-3,0.8s-1.7,1.3-2.3,2.3s-0.8,2.2-0.8,3.6s0.3,2.6,0.8,3.7c0.6,1,1.3,1.8,2.3,2.4c0.9,0.6,1.9,0.8,3,0.8
	s2.1-0.3,3-0.8c0.9-0.6,1.7-1.3,2.3-2.3C196.2,153.7,196.5,152.4,196.5,151z"/>
<path class="st0" d="M206.6,150.9c0-2.4,0.5-4.5,1.5-6.3s2.3-3.2,4.1-4.2c1.7-1,3.7-1.5,5.9-1.5c2.9,0,5.2,0.7,7.1,2.2
	c1.9,1.4,3.2,3.4,3.8,6h-6.3c-0.3-1-0.9-1.8-1.7-2.3c-0.8-0.6-1.8-0.9-2.9-0.9c-1.7,0-3,0.6-4,1.8s-1.5,2.9-1.5,5.1
	c0,2.2,0.5,3.9,1.5,5.1c1,1.2,2.3,1.8,4,1.8c2.4,0,3.9-1.1,4.6-3.2h6.3c-0.6,2.5-1.9,4.5-3.8,6c-1.9,1.5-4.3,2.2-7.1,2.2
	c-2.2,0-4.2-0.5-5.9-1.5s-3.1-2.4-4.1-4.2C207.1,155.4,206.6,153.3,206.6,150.9z"/>
<path class="st0" d="M246.9,162.4l-7.9-9.9v9.9h-5.8v-30.9h5.8v17.6l7.8-9.8h7.6l-10.2,11.6l10.3,11.5H246.9z"/>
<g>
	
		<linearGradient id="SVGID_1_" gradientUnits="userSpaceOnUse" x1="172.3314" y1="1568.423" x2="113.498" y2="1626.6747" gradientTransform="matrix(1 0 0 1 0 -1530)">
		<stop  offset="0" style="stop-color:#4D29B4"/>
		<stop  offset="1" style="stop-color:#836FFF"/>
	</linearGradient>
	<path class="st1" d="M171.2,84.6c0.9,0,1.4,1.1,0.7,1.8l-22.5,22.5c-0.7,0.7-1.8,0.2-1.8-0.7V85.6c0-0.6,0.5-1,1-1H171.2z
		 M101.6,63.3c-0.9,0-1.4-1.1-0.7-1.8l22.6-22.6c0.7-0.7,1.8-0.2,1.8,0.7v22.6c0,0.6-0.5,1-1,1L101.6,63.3L101.6,63.3z"/>
	
		<linearGradient id="SVGID_00000176015439274745031830000004162815472363538862_" gradientUnits="userSpaceOnUse" x1="147.367" y1="1591.7039" x2="188.0869" y2="1551.7058" gradientTransform="matrix(1 0 0 1 0 -1530)">
		<stop  offset="0" style="stop-color:#70FFE5"/>
		<stop  offset="1" style="stop-color:#6295E1"/>
	</linearGradient>
	<path style="fill:url(#SVGID_00000176015439274745031830000004162815472363538862_);" d="M150.7,59.6H181c0.6,0,1-0.5,1-1V28.3
		c0-0.6-0.5-1-1-1h-30.2c-0.6,0-1,0.5-1,1v30.2C149.7,59.1,150.2,59.6,150.7,59.6z"/>
	
		<linearGradient id="SVGID_00000000940449932196638740000014419462132246263184_" gradientUnits="userSpaceOnUse" x1="167.2158" y1="1573.395" x2="128.92" y2="1609.7572" gradientTransform="matrix(1 0 0 1 0 -1530)">
		<stop  offset="7.475110e-03" style="stop-color:#654FEC"/>
		<stop  offset="1" style="stop-color:#71B2FF"/>
	</linearGradient>
	<path style="fill:url(#SVGID_00000000940449932196638740000014419462132246263184_);" d="M173.1,79.4h-41.7c-0.6,0-1-0.5-1-1V36.7
		c0-0.6,0.5-1,1-1h12c0.6,0,1,0.5,1,1v27.1c0,0.6,0.5,1,1,1H173c0.6,0,1,0.5,1,1v12.5C174.2,78.9,173.7,79.4,173.1,79.4z"/>
</g>
</svg>
