<?xml version="1.0" encoding="utf-8"?>
<!-- Generator: Adobe Illustrator 27.3.1, SVG Export Plug-In . SVG Version: 6.00 Build 0)  -->
<svg version="1.1" id="Layer_1" xmlns="http://www.w3.org/2000/svg" xmlns:xlink="http://www.w3.org/1999/xlink" x="0px" y="0px"
	 viewBox="0 0 259.6 168" style="enable-background:new 0 0 259.6 168;" xml:space="preserve">
<style type="text/css">
	.st0{fill-rule:evenodd;clip-rule:evenodd;fill:#E5E5E5;}
	.st1{fill:#E5E5E5;}
</style>
<path class="st0" d="M139.7,48.7H170c0.6,0,1-0.5,1-1V17.4c0-0.6-0.5-1-1-1h-30.2c-0.6,0-1,0.5-1,1v30.2
	C138.8,48.2,139.1,48.7,139.7,48.7z M160.2,73.7c0.9,0,1.4,1.1,0.7,1.8L138.3,98c-0.7,0.7-1.8,0.2-1.8-0.7V74.7c0-0.6,0.5-1,1-1
	H160.2z M90.6,52.4c-0.9,0-1.4-1.1-0.7-1.8L112.5,28c0.7-0.7,1.8-0.2,1.8,0.7v22.6c0,0.6-0.5,1-1,1L90.6,52.4z M120.4,68.5h41.7
	c0.6,0,1-0.5,1-1V54.9c0-0.6-0.5-1-1-1h-27.6c-0.6,0-1-0.5-1-1V25.8c0-0.6-0.5-1-1-1h-12c-0.6,0-1,0.5-1,1v41.7
	C119.4,68,119.9,68.5,120.4,68.5z"/>
<path class="st1" d="M22.1,146.8h9.6v4.6H16.3v-29.2h5.8C22.1,122.2,22.1,146.8,22.1,146.8z"/>
<path class="st1" d="M45.7,152c-2.2,0-4.2-0.5-6-1.5s-3.2-2.4-4.2-4.2S34,142.4,34,140s0.5-4.5,1.5-6.3c1.1-1.8,2.5-3.2,4.3-4.2
	s3.8-1.5,6.1-1.5c2.2,0,4.2,0.5,6.1,1.5c1.8,1,3.2,2.4,4.3,4.2s1.6,3.9,1.6,6.3s-0.5,4.5-1.6,6.3s-2.5,3.2-4.3,4.2
	C50,151.5,48,152,45.7,152z M45.7,146.9c1.1,0,2-0.2,3-0.8c0.9-0.5,1.7-1.3,2.3-2.3s0.8-2.3,0.8-3.8c0-2.2-0.6-3.9-1.8-5.1
	c-1.1-1.2-2.5-1.8-4.2-1.8s-3.1,0.6-4.2,1.8c-1.1,1.2-1.7,2.9-1.7,5.1c0,2.2,0.5,3.9,1.6,5.1C42.7,146.3,44.1,146.9,45.7,146.9z"/>
<path class="st1" d="M60.6,140c0-2.4,0.5-4.5,1.5-6.3s2.3-3.2,4.1-4.2c1.7-1,3.7-1.5,5.9-1.5c2.9,0,5.2,0.7,7.1,2.2
	c1.9,1.4,3.2,3.4,3.8,6h-6.3c-0.3-1-0.9-1.8-1.7-2.3c-0.8-0.6-1.8-0.9-2.9-0.9c-1.7,0-3,0.6-4,1.8s-1.5,2.9-1.5,5.1
	c0,2.2,0.5,3.9,1.5,5.1c1,1.2,2.3,1.8,4,1.8c2.4,0,3.9-1.1,4.6-3.2H83c-0.6,2.5-1.9,4.5-3.8,6S74.9,152,72,152
	c-2.2,0-4.2-0.5-5.9-1.5c-1.7-1-3.1-2.4-4.1-4.2C61.1,144.5,60.6,142.4,60.6,140z"/>
<path class="st1" d="M85.7,139.9c0-2.3,0.5-4.4,1.4-6.2s2.2-3.2,3.8-4.2c1.6-1,3.4-1.5,5.4-1.5c1.7,0,3.2,0.3,4.5,1s2.4,1.6,3.1,2.6
	v-3.3h5.9v23.1h-5.9V148c-0.8,1.1-1.8,2-3.1,2.7c-1.3,0.7-2.8,1-4.6,1c-1.9,0-3.7-0.5-5.3-1.5c-1.6-1-2.9-2.4-3.8-4.2
	C86.2,144.4,85.7,142.3,85.7,139.9z M103.9,140c0-1.4-0.3-2.6-0.8-3.6c-0.6-1-1.3-1.8-2.3-2.3c-0.9-0.6-2-0.8-3-0.8s-2.1,0.3-3,0.8
	s-1.7,1.3-2.3,2.3c-0.6,1-0.8,2.2-0.8,3.6c0,1.4,0.3,2.6,0.8,3.7c0.6,1,1.3,1.8,2.3,2.4c0.9,0.6,1.9,0.8,3,0.8s2.1-0.3,3-0.8
	c0.9-0.6,1.7-1.3,2.3-2.3C103.6,142.7,103.9,141.4,103.9,140z"/>
<path class="st1" d="M121.4,120.5v30.9h-5.8v-30.9C115.6,120.5,121.4,120.5,121.4,120.5z"/>
<path class="st1" d="M137.2,151.9c-2,0-3.9-0.3-5.5-1s-2.9-1.7-3.8-3c-0.9-1.3-1.4-2.9-1.5-4.6h6.3c0.1,1.2,0.5,2.1,1.3,2.8
	s1.8,1,3.2,1s2.4-0.3,3.2-1s1.2-1.5,1.2-2.6c0-0.9-0.3-1.6-0.8-2.1c-0.5-0.6-1.2-1-2-1.3s-1.9-0.7-3.3-1.1c-1.9-0.6-3.4-1.1-4.6-1.6
	c-1.2-0.6-2.2-1.4-3-2.5s-1.3-2.6-1.3-4.4c0-1.7,0.4-3.2,1.3-4.5c0.9-1.3,2.1-2.3,3.6-2.9c1.6-0.7,3.3-1,5.3-1c3,0,5.4,0.7,7.3,2.2
	c1.9,1.4,2.9,3.5,3.1,6.1h-6.4c-0.1-1-0.5-1.8-1.3-2.5s-1.8-1-3.1-1c-1.1,0-2.1,0.3-2.8,0.9s-1,1.4-1,2.5c0,0.8,0.2,1.4,0.8,2
	c0.5,0.5,1.2,0.9,1.9,1.3c0.8,0.3,1.9,0.7,3.3,1.1c1.9,0.6,3.4,1.1,4.6,1.7c1.2,0.6,2.2,1.4,3.1,2.5c0.9,1.1,1.3,2.6,1.3,4.4
	c0,1.6-0.4,3-1.2,4.3s-2,2.4-3.6,3.2C141.2,151.5,139.4,151.9,137.2,151.9z"/>
<path class="st1" d="M159.4,133.2v11.2c0,0.8,0.2,1.4,0.5,1.7c0.4,0.3,1,0.5,1.9,0.5h2.7v4.9h-3.7c-4.9,0-7.4-2.4-7.4-7.2v-11.2
	h-2.8v-4.8h2.8v-5.7h5.9v5.7h5.2v4.8h-5.1V133.2z"/>
<path class="st1" d="M167.3,139.9c0-2.3,0.5-4.4,1.4-6.2s2.2-3.2,3.8-4.2s3.4-1.5,5.4-1.5c1.7,0,3.2,0.3,4.5,1s2.4,1.6,3.1,2.6v-3.3
	h5.9v23.1h-5.9V148c-0.8,1.1-1.8,2-3.1,2.7s-2.8,1-4.6,1c-1.9,0-3.7-0.5-5.3-1.5s-2.9-2.4-3.8-4.2
	C167.7,144.4,167.3,142.3,167.3,139.9z M185.5,140c0-1.4-0.3-2.6-0.8-3.6c-0.6-1-1.3-1.8-2.3-2.3c-0.9-0.6-2-0.8-3-0.8
	c-1.1,0-2.1,0.3-3,0.8s-1.7,1.3-2.3,2.3s-0.8,2.2-0.8,3.6c0,1.4,0.3,2.6,0.8,3.7c0.6,1,1.3,1.8,2.3,2.4c0.9,0.6,1.9,0.8,3,0.8
	s2.1-0.3,3-0.8c0.9-0.6,1.7-1.3,2.3-2.3C185.2,142.7,185.5,141.4,185.5,140z"/>
<path class="st1" d="M195.6,140c0-2.4,0.5-4.5,1.5-6.3s2.3-3.2,4.1-4.2c1.7-1,3.7-1.5,5.9-1.5c2.9,0,5.2,0.7,7.1,2.2
	c1.9,1.4,3.2,3.4,3.8,6h-6.3c-0.3-1-0.9-1.8-1.7-2.3c-0.8-0.6-1.8-0.9-2.9-0.9c-1.7,0-3,0.6-4,1.8s-1.5,2.9-1.5,5.1
	c0,2.2,0.5,3.9,1.5,5.1c1,1.2,2.3,1.8,4,1.8c2.4,0,3.9-1.1,4.6-3.2h6.3c-0.6,2.5-1.9,4.5-3.8,6c-1.9,1.5-4.3,2.2-7.1,2.2
	c-2.2,0-4.2-0.5-5.9-1.5s-3.1-2.4-4.1-4.2C196.1,144.5,195.6,142.4,195.6,140z"/>
<path class="st1" d="M235.9,151.4l-7.9-9.9v9.9h-5.8v-30.9h5.8v17.6l7.8-9.8h7.6l-10.2,11.6l10.3,11.5H235.9z"/>
</svg>
