<?xml version="1.0" encoding="utf-8"?>
<!-- Generator: Adobe Illustrator 27.3.1, SVG Export Plug-In . SVG Version: 6.00 Build 0)  -->
<svg version="1.1" id="Layer_1" xmlns="http://www.w3.org/2000/svg" xmlns:xlink="http://www.w3.org/1999/xlink" x="0px" y="0px"
	 viewBox="0 0 114.1 114.7" style="enable-background:new 0 0 114.1 114.7;" xml:space="preserve">
<style type="text/css">
	.st0{fill-rule:evenodd;clip-rule:evenodd;fill:#39227A;}
</style>
<path class="st0" d="M66.5,48.7h30.2c0.6,0,1-0.5,1-1V17.4c0-0.6-0.5-1-1-1H66.5c-0.6,0-1,0.5-1,1v30.2
	C65.5,48.2,65.9,48.7,66.5,48.7z M87,73.7c0.9,0,1.4,1.1,0.7,1.8L65.1,98c-0.7,0.7-1.8,0.2-1.8-0.7V74.7c0-0.6,0.5-1,1-1H87z
	 M17.3,52.4c-0.9,0-1.4-1.1-0.7-1.8L39.2,28c0.7-0.7,1.8-0.2,1.8,0.7v22.7c0,0.6-0.5,1-1,1H17.3L17.3,52.4z M47.2,68.5h41.7
	c0.6,0,1-0.5,1-1V54.9c0-0.6-0.5-1-1-1H61.3c-0.6,0-1-0.5-1-1V25.8c0-0.6-0.5-1-1-1h-12c-0.6,0-1,0.5-1,1v41.7
	C46.3,68,46.6,68.5,47.2,68.5z"/>
</svg>
