<?xml version="1.0" encoding="utf-8"?>
<!-- Generator: Adobe Illustrator 27.3.1, SVG Export Plug-In . SVG Version: 6.00 Build 0)  -->
<svg version="1.1" id="Layer_1" xmlns="http://www.w3.org/2000/svg" xmlns:xlink="http://www.w3.org/1999/xlink" x="0px" y="0px"
	 viewBox="0 0 114.1 114.7" style="enable-background:new 0 0 114.1 114.7;" xml:space="preserve">
<style type="text/css">
	.st0{fill-rule:evenodd;clip-rule:evenodd;fill:#E5E5E5;}
</style>
<path class="st0" d="M66.6,48.7h30.2c0.6,0,1-0.5,1-1V17.4c0-0.6-0.5-1-1-1H66.6c-0.6,0-1,0.5-1,1v30.2C65.6,48.2,66,48.7,66.6,48.7
	z M87,73.7c0.9,0,1.4,1.1,0.7,1.8L65.2,98c-0.7,0.7-1.8,0.2-1.8-0.7V74.7c0-0.6,0.5-1,1-1H87z M17.4,52.4c-0.9,0-1.4-1.1-0.7-1.8
	L39.3,28c0.7-0.7,1.8-0.2,1.8,0.7v22.7c0,0.6-0.5,1-1,1H17.4L17.4,52.4z M47.3,68.5H89c0.6,0,1-0.5,1-1V54.9c0-0.6-0.5-1-1-1H61.4
	c-0.6,0-1-0.5-1-1V25.8c0-0.6-0.5-1-1-1h-12c-0.6,0-1,0.5-1,1v41.7C46.4,68,46.7,68.5,47.3,68.5z"/>
</svg>
